<svg fill="#FFF" enable-background="new 0 0 520 520" height="512" viewBox="0 0 520 520" width="512" xmlns="http://www.w3.org/2000/svg"><g id="_x31_092_x2C__Data_x2C__Email_x2C__Inbox_x2C__Mail_x2C__Office_x2C_"><path d="m447.278 47.874c-5.574-22.3-25.52-37.874-48.507-37.874h-277.538c-22.985 0-42.933 15.574-48.507 37.874-66.569 266.312-62.724 250.286-62.724 252.126v160c0 27.57 22.43 50 50 50h400c27.57 0 50-22.43 50-50v-160c.001-1.806 3.668 13.521-62.724-252.126zm-355.149 4.85c3.345-13.379 15.313-22.724 29.104-22.724h277.538c13.792 0 25.76 9.344 29.104 22.724l59.32 237.276h-85.681c-25.38 0-48.153 16.12-56.67 40.113-12.713 35.821-46.809 59.887-84.841 59.887-38.033 0-72.128-24.066-84.842-59.887-8.516-23.993-31.29-40.113-56.67-40.113h-85.68zm397.874 407.276c0 16.542-13.458 30-30 30h-400c-16.542 0-30-13.458-30-30v-150h88.488c16.932 0 32.132 10.771 37.822 26.803 15.54 43.781 57.209 73.197 103.69 73.197s88.149-29.416 103.689-73.197c5.69-16.031 20.891-26.803 37.822-26.803h88.488v150z"/></g></svg>